<svg xmlns="http://www.w3.org/2000/svg" viewBox="0 0 256 256" role="img" aria-label="BibleProject Hyperlink Reader icon">
  <defs>
    <linearGradient id="g" x1="0" y1="0" x2="1" y2="1">
      <stop offset="0" stop-color="#22d3ee"/>
      <stop offset="0.5" stop-color="#a78bfa"/>
      <stop offset="1" stop-color="#f59e0b"/>
    </linearGradient>
  </defs>
  <rect width="256" height="256" rx="56" fill="#0f172a"/>
  <path d="M64 64h72c25 0 44 20 44 45v82H93c-16 0-29-13-29-29V64Z" fill="#111827" stroke="url(#g)" stroke-width="10"/>
  <path d="M89 91h67M89 119h67M89 147h44" stroke="#f8fafc" stroke-width="11" stroke-linecap="round" opacity="0.9"/>
  <path d="M170 70c15 22 13 49-4 68-17 19-49 24-73 9 22-3 36-13 42-29 6-17-1-33-15-48 21-1 38 1 50 0Z" fill="none" stroke="#22d3ee" stroke-width="8" stroke-linecap="round" stroke-linejoin="round" opacity="0.85"/>
</svg>
